<svg xmlns="http://www.w3.org/2000/svg" xmlns:xlink="http://www.w3.org/1999/xlink" version="1.1" width="256" height="256" viewBox="0 0 256 256" xml:space="preserve">

<defs>
</defs>
<g style="stroke: none; stroke-width: 0; stroke-dasharray: none; stroke-linecap: butt; stroke-linejoin: miter; stroke-miterlimit: 10; fill: none; fill-rule: nonzero; opacity: 1;" transform="translate(1.4065934065934016 1.4065934065934016) scale(2.81 2.81)" >
	<path d="M 48.215 51.571 h -4.94 c -0.552 0 -1 -0.447 -1 -1 V 39.428 c 0 -0.552 0.448 -1 1 -1 s 1 0.448 1 1 v 10.143 h 3.94 c 0.553 0 1 0.447 1 1 S 48.768 51.571 48.215 51.571 z" style="stroke: none; stroke-width: 1; stroke-dasharray: none; stroke-linecap: butt; stroke-linejoin: miter; stroke-miterlimit: 10; fill: rgb(0,0,0); fill-rule: nonzero; opacity: 1;" transform=" matrix(1 0 0 1 0 0) " stroke-linecap="round" />
	<path d="M 53.393 51.571 c -0.553 0 -1 -0.447 -1 -1 V 39.428 c 0 -0.552 0.447 -1 1 -1 s 1 0.448 1 1 v 11.143 C 54.393 51.124 53.945 51.571 53.393 51.571 z" style="stroke: none; stroke-width: 1; stroke-dasharray: none; stroke-linecap: butt; stroke-linejoin: miter; stroke-miterlimit: 10; fill: rgb(0,0,0); fill-rule: nonzero; opacity: 1;" transform=" matrix(1 0 0 1 0 0) " stroke-linecap="round" />
	<path d="M 76.043 51.571 h -4.94 c -0.553 0 -1 -0.447 -1 -1 V 39.428 c 0 -0.552 0.447 -1 1 -1 h 4.94 c 0.553 0 1 0.448 1 1 s -0.447 1 -1 1 h -3.94 v 9.143 h 3.94 c 0.553 0 1 0.447 1 1 S 76.596 51.571 76.043 51.571 z" style="stroke: none; stroke-width: 1; stroke-dasharray: none; stroke-linecap: butt; stroke-linejoin: miter; stroke-miterlimit: 10; fill: rgb(0,0,0); fill-rule: nonzero; opacity: 1;" transform=" matrix(1 0 0 1 0 0) " stroke-linecap="round" />
	<path d="M 74.334 46 h -3.231 c -0.553 0 -1 -0.448 -1 -1 s 0.447 -1 1 -1 h 3.231 c 0.553 0 1 0.448 1 1 S 74.887 46 74.334 46 z" style="stroke: none; stroke-width: 1; stroke-dasharray: none; stroke-linecap: butt; stroke-linejoin: miter; stroke-miterlimit: 10; fill: rgb(0,0,0); fill-rule: nonzero; opacity: 1;" transform=" matrix(1 0 0 1 0 0) " stroke-linecap="round" />
	<path d="M 62.267 51.571 c -0.423 0 -0.8 -0.267 -0.942 -0.665 l -3.967 -11.143 c -0.185 -0.521 0.087 -1.092 0.607 -1.277 c 0.517 -0.187 1.091 0.086 1.277 0.606 l 3.024 8.497 l 3.024 -8.497 c 0.186 -0.52 0.759 -0.793 1.277 -0.606 c 0.521 0.185 0.792 0.757 0.607 1.277 l -3.967 11.143 C 63.066 51.305 62.689 51.571 62.267 51.571 z" style="stroke: none; stroke-width: 1; stroke-dasharray: none; stroke-linecap: butt; stroke-linejoin: miter; stroke-miterlimit: 10; fill: rgb(0,0,0); fill-rule: nonzero; opacity: 1;" transform=" matrix(1 0 0 1 0 0) " stroke-linecap="round" />
	<path d="M 13.59 52.235 c -0.308 0 -0.617 -0.075 -0.899 -0.227 c -0.62 -0.332 -1.005 -0.976 -1.005 -1.679 V 39.67 c 0 -0.703 0.385 -1.347 1.005 -1.679 c 0.619 -0.332 1.369 -0.297 1.955 0.092 l 8.01 5.331 c 0.532 0.354 0.849 0.947 0.849 1.586 s -0.317 1.231 -0.849 1.586 l -8.01 5.33 C 14.326 52.128 13.958 52.235 13.59 52.235 z M 13.685 39.847 v 10.305 L 21.428 45 L 13.685 39.847 z" style="stroke: none; stroke-width: 1; stroke-dasharray: none; stroke-linecap: butt; stroke-linejoin: miter; stroke-miterlimit: 10; fill: rgb(0,0,0); fill-rule: nonzero; opacity: 1;" transform=" matrix(1 0 0 1 0 0) " stroke-linecap="round" />
	<path d="M 16.148 61.148 C 7.244 61.148 0 53.904 0 45 s 7.244 -16.148 16.148 -16.148 c 3.231 0 6.349 0.951 9.018 2.751 c 0.458 0.309 0.579 0.93 0.27 1.388 c -0.31 0.458 -0.931 0.58 -1.388 0.27 c -2.337 -1.576 -5.069 -2.409 -7.9 -2.409 C 8.347 30.852 2 37.199 2 45 c 0 7.802 6.347 14.148 14.148 14.148 S 30.296 52.802 30.296 45 c 0 -1.556 -0.25 -3.083 -0.745 -4.542 c -0.177 -0.523 0.103 -1.091 0.626 -1.268 c 0.526 -0.174 1.091 0.104 1.268 0.626 c 0.564 1.665 0.85 3.409 0.85 5.183 C 32.296 53.904 25.052 61.148 16.148 61.148 z" style="stroke: none; stroke-width: 1; stroke-dasharray: none; stroke-linecap: butt; stroke-linejoin: miter; stroke-miterlimit: 10; fill: rgb(0,0,0); fill-rule: nonzero; opacity: 1;" transform=" matrix(1 0 0 1 0 0) " stroke-linecap="round" />
	<path d="M 76.433 58.568 H 34.064 c -0.552 0 -1 -0.447 -1 -1 s 0.448 -1 1 -1 h 42.369 C 82.811 56.568 88 51.379 88 45 c 0 -6.378 -5.189 -11.568 -11.567 -11.568 H 24.607 c -0.552 0 -1 -0.448 -1 -1 s 0.448 -1 1 -1 h 51.825 C 83.914 31.432 90 37.519 90 45 S 83.914 58.568 76.433 58.568 z" style="stroke: none; stroke-width: 1; stroke-dasharray: none; stroke-linecap: butt; stroke-linejoin: miter; stroke-miterlimit: 10; fill: rgb(0,0,0); fill-rule: nonzero; opacity: 1;" transform=" matrix(1 0 0 1 0 0) " stroke-linecap="round" />
</g>
</svg>